<svg width="71" height="60" viewBox="0 0 71 60" fill="none" xmlns="http://www.w3.org/2000/svg">
    <path d="M68.6943 55.2965H54.9398V2.24325C54.9398 1.14292 54.0752 0.27832 52.9748 0.27832H17.606C16.5057 0.27832 15.6411 1.14292 15.6411 2.24325V55.2965H1.88655C-0.628849 55.2965 -0.628849 59.2263 1.88655 59.2263H68.6943C71.2097 59.2263 71.2097 55.2965 68.6943 55.2965ZM51.0099 55.2965H19.571V4.20819H51.0099V55.2965Z" fill="black"/>
    <path d="M49.0451 33.6821C49.0451 34.7671 48.1652 35.647 47.0802 35.647C45.9952 35.647 45.1152 34.7671 45.1152 33.6821C45.1152 32.5971 45.9952 31.7172 47.0802 31.7172C48.1652 31.7172 49.0451 32.5971 49.0451 33.6821Z" fill="black"/>
</svg>
