<svg width="64" height="76" viewBox="0 0 64 76" fill="none" xmlns="http://www.w3.org/2000/svg">
    <path d="M13.157 45.1063C12.1193 45.1063 11.2773 45.9477 11.2773 46.9853C11.2773 48.0236 12.1193 48.865 13.157 48.865H15.0366V58.2619C15.0366 59.3002 15.878 60.1416 16.9156 60.1416C17.9539 60.1416 18.7953 59.3002 18.7953 58.2619V48.865H20.6749C21.7126 48.865 22.5539 48.0236 22.5539 46.9853C22.5539 45.9477 21.7126 45.1063 20.6749 45.1063H13.157Z" fill="#5BBE2C"/>
    <path d="M33.5801 11.2766V11.5266H33.8301H56.3833C58.9797 11.5266 61.379 12.912 62.6772 15.1606L62.6773 15.1606C63.9761 17.4091 63.9761 20.1795 62.6773 22.4285L62.886 22.549L62.6772 22.4285C61.379 24.677 58.9797 26.0622 56.3833 26.0622H33.8301H33.5801V26.3122V73.2985V73.2988C33.5806 73.7306 33.4089 74.1452 33.1033 74.4507C32.7978 74.7563 32.3832 74.9281 31.9514 74.9275H31.9511H1.87965H1.87933C1.44751 74.9281 1.03294 74.7563 0.727396 74.4507L0.727239 74.4506C0.421357 74.1452 0.25 73.7307 0.25 73.2985V1.87902C0.25 1.44678 0.421357 1.03226 0.727239 0.726927L0.727396 0.72677C1.03294 0.421222 1.44751 0.249456 1.87933 0.250001H1.87965L31.9511 0.250002L31.9514 0.250001C32.3832 0.249457 32.7978 0.421222 33.1033 0.72677C33.4089 1.03232 33.5807 1.44689 33.5801 1.8787V1.87902V11.2766ZM30.0718 71.6679H30.3218V71.4179V26.3115V26.0615H30.0718H18.7952C16.1987 26.0615 13.7995 24.6764 12.5013 22.4279C11.203 20.1789 11.203 17.4085 12.5012 15.1599C13.7995 12.9115 16.1987 11.5263 18.7952 11.5263H30.0718H30.3218V11.2763V3.75834V3.50834H30.0718H3.76028H3.51028V3.75834V71.4179V71.6679H3.76028H30.0718ZM18.7952 22.8032H56.3833C57.8155 22.8032 59.1389 22.0388 59.855 20.7986C60.5711 19.5583 60.5711 18.0302 59.855 16.7899C59.1389 15.5497 57.8155 14.7853 56.3833 14.7853H18.7952C17.363 14.7853 16.0395 15.5496 15.3235 16.7899C14.6074 18.0302 14.6074 19.5583 15.3235 20.7986C16.0395 22.0388 17.363 22.8032 18.7952 22.8032Z" fill="black" stroke="white" stroke-width="0.5"/>
</svg>
