<svg width="16" height="23" viewBox="0 0 16 23" fill="none" xmlns="http://www.w3.org/2000/svg">
    <path d="M7.67716 21.9241C7.47955 21.6609 7.21543 21.303 6.9058 20.8687C6.2142 19.8985 5.29839 18.5507 4.39025 17.0265C1.92316 12.8857 0.75 9.59544 0.75 7.20093C0.75 3.68754 3.80585 0.750079 7.65936 0.750079H7.69427C11.5476 0.750079 14.6036 3.68747 14.6037 7.20093L7.67716 21.9241ZM7.67716 21.9241C8.30424 21.0014 9.64853 18.9716 10.9785 16.6297L11.6306 17.0001L10.9785 16.6297C12.202 14.4753 13.1135 12.5996 13.7175 11.0099C14.325 9.41107 14.6037 8.14656 14.6037 7.20096L7.67716 21.9241Z" stroke="#5BBE2C" stroke-width="1.5"/>
    <path d="M10.5397 7.4759C10.5397 9.10721 9.24509 10.4059 7.6771 10.4059C6.1091 10.4059 4.81445 9.10721 4.81445 7.4759C4.81445 5.84458 6.1091 4.5459 7.6771 4.5459C9.24509 4.5459 10.5397 5.84458 10.5397 7.4759Z" stroke="#5BBE2C" stroke-width="1.5"/>
</svg>
