<svg xmlns="http://www.w3.org/2000/svg" display="none">

    <symbol id="phone" viewBox="0 0 17 17">
        <path fill-rule="evenodd" clip-rule="evenodd"
              d="M10.3766 12.1114C10.5976 11.8301 11.3709 10.5359 12.5309 10.9298C13.7462 11.3236 16.7844 12.3928 15.3481 14.3059C10.5423 20.9457 -3.81988 6.25941 2.64311 1.364C4.52125 -0.0427314 5.57079 2.9958 5.95747 4.23372C6.34414 5.47165 5.12888 6.20314 4.79744 6.42822C3.96886 7.21599 9.6585 12.9554 10.3766 12.1114Z"
              stroke-width="1.5"/>
    </symbol>

    <symbol id="location" viewBox="0 0 16 23">
        <path d="M7.67716 21.9241C7.47955 21.6609 7.21543 21.303 6.9058 20.8687C6.2142 19.8985 5.29839 18.5507 4.39025 17.0265C1.92316 12.8857 0.75 9.59544 0.75 7.20093C0.75 3.68754 3.80585 0.750079 7.65936 0.750079H7.69427C11.5476 0.750079 14.6036 3.68747 14.6037 7.20093L7.67716 21.9241ZM7.67716 21.9241C8.30424 21.0014 9.64853 18.9716 10.9785 16.6297L11.6306 17.0001L10.9785 16.6297C12.202 14.4753 13.1135 12.5996 13.7175 11.0099C14.325 9.41107 14.6037 8.14656 14.6037 7.20096L7.67716 21.9241Z"
              stroke-width="1.5"/>
        <path d="M10.5397 7.4759C10.5397 9.10721 9.24509 10.4059 7.6771 10.4059C6.1091 10.4059 4.81445 9.10721 4.81445 7.4759C4.81445 5.84458 6.1091 4.5459 7.6771 4.5459C9.24509 4.5459 10.5397 5.84458 10.5397 7.4759Z"
              stroke-width="1.5"/>
    </symbol>

    <symbol id="search" viewBox="0 0 24 24">
        <path fill-rule="evenodd" clip-rule="evenodd"
              d="M16.5303 9.36718C16.5303 13.3233 13.3232 16.5303 9.36718 16.5303C5.4111 16.5303 2.20404 13.3233 2.20404 9.36718C2.20404 5.41109 5.4111 2.20404 9.36718 2.20404C13.3232 2.20404 16.5303 5.41109 16.5303 9.36718ZM18.6104 17.0519C17.5348 15.9763 17.4902 14.2775 18.0588 12.8666C18.4945 11.7855 18.7344 10.6043 18.7344 9.36718C18.7344 4.19383 14.5405 0 9.36718 0C4.19385 0 0 4.19383 0 9.36718C0 14.5405 4.19385 18.7344 9.36718 18.7344C10.6043 18.7344 11.7854 18.4945 12.8665 18.0588C14.2774 17.4903 15.9764 17.5349 17.052 18.6105L22.1188 23.6772C22.5491 24.1076 23.2469 24.1076 23.6772 23.6772C24.1076 23.2469 24.1076 22.5491 23.6772 22.1188L18.6104 17.0519Z"/>
    </symbol>

    <symbol id="basket" viewBox="0 0 29 29">
        <path d="M20.4916 0C19.15 0.116583 17.7599 0.557976 16.5065 0.869232C15.6289 1.08288 15.0283 1.82798 14.9619 2.65756C14.8268 2.63399 14.6888 2.62151 14.5447 2.636C13.8265 2.72369 13.1067 2.95083 12.382 3.13058C11.7549 3.2861 11.274 3.71457 11.0216 4.24778C10.7504 4.11221 10.4608 4.04077 10.1565 4.05776C9.78343 4.09123 9.45325 4.19695 9.07651 4.29225C7.96987 4.57344 7.29783 5.68759 7.58911 6.7571C7.70741 7.14193 7.82784 7.52746 7.9477 7.91338H5.16406L4.77755 3.90952C4.74362 3.55443 4.43516 3.28279 4.06595 3.28287H0.717198C0.320464 3.28136 -0.00154482 3.59237 5.57518e-06 3.97556C0.00143419 4.35663 0.322643 4.66435 0.717198 4.66286H3.41154L5.16824 22.883C5.20218 23.2381 5.51063 23.5098 5.87985 23.5097H26.6058C27.0025 23.5112 27.3246 23.2002 27.323 22.817C27.3222 22.4354 27.0009 22.1269 26.6058 22.1284H6.53426L6.39751 20.7174H24.8338C26.0318 20.7174 26.8624 19.7459 27.0174 18.7309C27.6677 15.8543 28.3182 12.9712 28.9681 10.0979C29.1508 9.22826 28.566 7.91338 26.7844 7.91338H24.1989C23.5565 5.77053 22.9267 3.62349 22.2748 1.48376C22.0412 0.669392 21.3101 0.0389329 20.4916 0ZM20.4413 1.39751C20.6323 1.37985 20.8006 1.49877 20.9102 1.88805C21.5146 3.89412 22.1139 5.90495 22.7143 7.91338H17.8935C17.4099 6.31089 16.8531 4.47477 16.4061 2.98908C16.3093 2.6391 16.4901 2.29233 16.8554 2.2034C18.032 1.91791 19.2731 1.59355 20.4413 1.39751H20.4413ZM14.6187 4.01599C14.9261 3.94844 15.2176 4.18686 15.3038 4.49575C15.6489 5.6348 15.9933 6.77411 16.3377 7.91338H13.0992L12.2774 5.22887C12.1791 4.87669 12.374 4.56104 12.7406 4.47014C13.3938 4.30569 14.0467 4.14085 14.6187 4.01599ZM10.2416 5.43775C10.5822 5.36498 10.8273 5.60218 10.9113 5.91078C11.1131 6.57661 11.3184 7.24665 11.5225 7.91338H9.43929C9.27483 7.39029 9.12632 6.90936 8.96628 6.38515C8.87342 6.03381 9.0747 5.71906 9.43929 5.62642C9.70293 5.55082 9.97353 5.49699 10.2416 5.43775ZM5.29661 9.29337H26.7844C27.3713 9.29027 27.6358 9.58157 27.549 9.89442C26.9045 12.7718 26.2387 15.6518 25.604 18.5274C25.5252 19.0432 25.2708 19.3374 24.8338 19.3374H6.29705C5.96754 15.989 5.62145 12.6422 5.29661 9.29337ZM10.1788 23.9827C8.73903 23.9827 7.54167 25.1084 7.54167 26.4934C7.54167 27.8784 8.73903 29 10.1788 29C11.6186 29 12.8146 27.8784 12.8146 26.4934C12.8146 25.1084 11.6186 23.9827 10.1788 23.9827ZM22.4129 23.9827C20.9731 23.9827 19.7758 25.1084 19.7758 26.4934C19.7758 27.8784 20.9731 29 22.4129 29C23.8527 29 25.05 27.8784 25.05 26.4934C25.05 25.1084 23.8527 23.9827 22.4129 23.9827ZM10.1788 25.3627C10.8623 25.3627 11.3857 25.8699 11.3857 26.4934C11.3857 27.1169 10.8623 27.62 10.1788 27.62C9.49531 27.62 8.97046 27.1169 8.97046 26.4934C8.97046 25.8699 9.49531 25.3627 10.1788 25.3627ZM22.4129 25.3627C23.0964 25.3627 23.6212 25.8699 23.6212 26.4934C23.6212 27.1169 23.0964 27.62 22.4129 27.62C21.7294 27.62 21.206 27.1169 21.206 26.4934C21.206 25.8699 21.7294 25.3627 22.4129 25.3627Z"/>
    </symbol>


    <symbol id="close" viewBox="0 0 21 20">
        <path d="M11.6601 10L20.7597 1.33372C21.0801 1.0286 21.0801 0.533916 20.7597 0.228838C20.4393 -0.0762402 19.9199 -0.0762793 19.5996 0.228838L10.5 8.89516L1.4004 0.228838C1.08003 -0.0762793 0.56061 -0.0762793 0.240279 0.228838C-0.080052 0.533955 -0.080093 1.02864 0.240279 1.33372L9.33986 10L0.240279 18.6663C-0.080093 18.9714 -0.080093 19.4661 0.240279 19.7712C0.400445 19.9238 0.610403 20 0.820361 20C1.03032 20 1.24024 19.9238 1.40044 19.7712L10.5 11.1049L19.5996 19.7712C19.7597 19.9238 19.9697 20 20.1796 20C20.3896 20 20.5995 19.9238 20.7597 19.7712C21.0801 19.4661 21.0801 18.9714 20.7597 18.6663L11.6601 10Z"/>
    </symbol>

    <symbol id="vk" viewBox="0 0 18 11">
        <path d="M14.8263 6.44595C14.5457 6.10425 14.626 5.95223 14.8263 5.64679C14.83 5.64331 17.1464 2.55685 17.385 1.51014L17.3865 1.50944C17.5051 1.12799 17.3865 0.847656 16.813 0.847656H14.9153C14.4322 0.847656 14.2094 1.08824 14.0901 1.35742C14.0901 1.35742 13.1239 3.58753 11.7571 5.03313C11.3159 5.45084 11.112 5.58473 10.8712 5.58473C10.7526 5.58473 10.5681 5.45084 10.5681 5.06939V1.50944C10.5681 1.05198 10.4329 0.847656 10.033 0.847656H7.04905C6.74603 0.847656 6.56596 1.06104 6.56596 1.25979C6.56596 1.69354 7.24938 1.79326 7.32025 3.01361V5.66144C7.32025 6.24163 7.21105 6.34832 6.96878 6.34832C6.32368 6.34832 4.75796 4.10914 3.83009 1.5464C3.64279 1.04919 3.45982 0.848354 2.9731 0.848354H1.07471C0.533031 0.848354 0.423828 1.08894 0.423828 1.35811C0.423828 1.8337 1.06892 4.19841 3.42366 7.32252C4.993 9.455 7.20309 10.6105 9.21359 10.6105C10.4221 10.6105 10.5696 10.3539 10.5696 9.91246C10.5696 7.87481 10.4604 7.68235 11.0657 7.68235C11.3463 7.68235 11.8294 7.81624 12.9576 8.84482C14.2471 10.0645 14.4589 10.6105 15.1807 10.6105H17.0784C17.6193 10.6105 17.8934 10.3539 17.7358 9.84761C17.3749 8.78276 14.9363 6.59239 14.8263 6.44595Z"/>
    </symbol>


    <symbol id="whatsapp" viewBox="0 0 16 17">
        <path d="M0 16.0638C0.118275 15.6104 0.23655 15.1767 0.354824 14.7628C0.591374 13.8757 0.847636 12.9887 1.08419 12.1016C1.1039 12.0227 1.1039 11.9045 1.06447 11.8256C-1.1039 7.88313 0.413962 2.9353 4.41559 0.885203C8.81147 -1.38173 14.193 0.885203 15.6517 5.63591C16.933 9.81495 14.5675 14.2897 10.3885 15.571C8.31866 16.2018 6.28828 16.0047 4.35645 15.0388C4.2776 14.9993 4.17904 14.9993 4.10019 15.019C2.79917 15.3541 1.49815 15.6893 0.197125 16.0441C0.137987 16.0244 0.0788498 16.0441 0 16.0638ZM1.91211 14.1714C2.72032 13.9546 3.46939 13.7574 4.23818 13.5603C4.37617 13.5209 4.47473 13.5406 4.57329 13.6195C6.05173 14.5065 7.62872 14.8022 9.32399 14.4671C12.8919 13.7574 15.1983 10.3078 14.5281 6.72009C13.8579 3.15214 10.3688 0.786641 6.82051 1.45686C2.36549 2.3045 0.0394251 7.27204 2.28665 11.2145C2.5232 11.6285 2.56262 11.9636 2.42463 12.3973C2.2078 12.9689 2.06981 13.5603 1.91211 14.1714Z"/>
        <path d="M5.46022 4.29571C5.79533 4.21686 5.95303 4.41398 6.07131 4.72938C6.24872 5.20248 6.44584 5.65587 6.64297 6.10925C6.72182 6.26695 6.70211 6.40494 6.60354 6.54293C6.44584 6.75977 6.28814 6.9766 6.13044 7.17373C6.01217 7.31171 6.01217 7.42999 6.09102 7.58769C6.74153 8.67187 7.6483 9.46037 8.83105 9.93347C8.98875 9.99261 9.12674 9.9729 9.2253 9.83491C9.42243 9.59836 9.61955 9.3421 9.81667 9.10555C9.95466 8.92814 10.0335 8.88871 10.2503 8.96756C10.822 9.22382 11.374 9.4998 11.9259 9.77577C11.985 9.8152 12.0639 9.93347 12.0639 10.0123C12.0442 10.86 11.8076 11.2739 10.9009 11.6485C10.3883 11.8653 9.8561 11.8062 9.32386 11.6682C7.41175 11.1359 5.99246 9.93347 4.86885 8.33676C4.51402 7.84395 4.19862 7.33143 4.06064 6.74005C3.86351 5.8727 4.08035 5.12363 4.71115 4.51254C4.90827 4.29571 5.16453 4.25628 5.46022 4.29571Z"/>
    </symbol>

    <symbol id="fb" viewBox="0 0 11 20">
        <path d="M8.6582 3.66591H10.4406V0.561322C10.1331 0.519016 9.07553 0.423828 7.84388 0.423828C5.27403 0.423828 3.51361 2.04039 3.51361 5.01155V7.74596H0.677734V11.2167H3.51361V19.9495H6.99052V11.2175H9.71168L10.1437 7.74678H6.9897V5.35569C6.99052 4.35256 7.2606 3.66591 8.6582 3.66591Z"/>
    </symbol>

    <symbol id="telegram" viewBox="0 0 19 15">
        <path d="M0.250789 5.76679L18.3475 0.017493C18.6193 -0.0691039 18.8785 0.179866 18.8034 0.454891L15.6372 12.0387C15.5812 12.2433 15.3614 12.3553 15.163 12.28L8.76946 9.86193C8.51808 9.76678 8.4558 9.43924 8.65506 9.25881L13.6705 4.71446C13.9788 4.43528 13.6461 3.94257 13.2717 4.12471L4.87582 8.20823C4.78388 8.253 4.6775 8.25634 4.58288 8.21772L0.223956 6.44271C-0.0875591 6.31562 -0.0699162 5.8686 0.250818 5.76689L0.250789 5.76679ZM10.3104 6.74624C10.4679 6.60952 10.2931 6.3631 10.1117 6.46626L6.11063 8.65127C5.7498 8.85667 5.58035 9.28524 5.70303 9.68203L6.93894 13.8429C7.00174 14.0536 7.26635 14.1216 7.42286 13.9673L9.8896 11.6323C9.99036 11.5328 9.95829 11.3627 9.82799 11.3072L7.2684 10.0315C7.12781 9.9613 7.10015 9.77301 7.21415 9.66543L10.3102 6.74621L10.3104 6.74624Z"/>
    </symbol>

    <symbol id="instagram" viewBox="0 0 17 17">
        <path d="M14.2456 0H3.33818C2.61497 0 1.92139 0.287293 1.41 0.798676C0.898621 1.31006 0.611328 2.00365 0.611328 2.72685L0.611328 13.6343C0.611328 14.3575 0.898621 15.051 1.41 15.5624C1.92139 16.0738 2.61497 16.3611 3.33818 16.3611H14.2456C14.9688 16.3611 15.6624 16.0738 16.1738 15.5624C16.6851 15.051 16.9724 14.3575 16.9724 13.6343V2.72685C16.9724 2.00365 16.6851 1.31006 16.1738 0.798676C15.6624 0.287293 14.9688 0 14.2456 0V0ZM15.609 13.6343C15.609 13.9959 15.4654 14.3427 15.2097 14.5983C14.954 14.854 14.6072 14.9977 14.2456 14.9977H3.33818C2.97658 14.9977 2.62978 14.854 2.37409 14.5983C2.1184 14.3427 1.97475 13.9959 1.97475 13.6343V2.72685C1.97475 2.36525 2.1184 2.01846 2.37409 1.76276C2.62978 1.50707 2.97658 1.36343 3.33818 1.36343H14.2456C14.6072 1.36343 14.954 1.50707 15.2097 1.76276C15.4654 2.01846 15.609 2.36525 15.609 2.72685V13.6343Z"/>
        <path d="M8.79243 4.09033C7.98345 4.09033 7.19263 4.33022 6.51999 4.77967C5.84735 5.22911 5.32309 5.86793 5.0135 6.61533C4.70392 7.36273 4.62292 8.18515 4.78074 8.97858C4.93857 9.77202 5.32813 10.5008 5.90016 11.0729C6.4722 11.6449 7.20102 12.0345 7.99445 12.1923C8.78789 12.3501 9.61031 12.2691 10.3577 11.9595C11.1051 11.65 11.7439 11.1257 12.1934 10.453C12.6428 9.7804 12.8827 8.98959 12.8827 8.18061C12.8827 7.0958 12.4518 6.05542 11.6847 5.28835C10.9176 4.52127 9.87724 4.09033 8.79243 4.09033ZM8.79243 10.9075C8.25311 10.9075 7.7259 10.7475 7.27747 10.4479C6.82904 10.1483 6.47953 9.7224 6.27315 9.22413C6.06676 8.72586 6.01276 8.17758 6.11797 7.64863C6.22319 7.11967 6.4829 6.63379 6.86425 6.25243C7.24561 5.87108 7.73149 5.61137 8.26045 5.50615C8.7894 5.40094 9.33768 5.45494 9.83595 5.66133C10.3342 5.86772 10.7601 6.21722 11.0597 6.66565C11.3594 7.11408 11.5193 7.64129 11.5193 8.18061C11.5193 8.90382 11.232 9.5974 10.7206 10.1088C10.2092 10.6202 9.51563 10.9075 8.79243 10.9075Z"/>
        <path d="M13.2228 4.77182C13.7875 4.77182 14.2453 4.314 14.2453 3.74925C14.2453 3.1845 13.7875 2.72668 13.2228 2.72668C12.658 2.72668 12.2002 3.1845 12.2002 3.74925C12.2002 4.314 12.658 4.77182 13.2228 4.77182Z"/>
    </symbol>


    <symbol id="prev" viewBox="0 0 23 38">
        <path d="M21 36L3 19L21 2" stroke-width="3" stroke-linecap="round"/>
    </symbol>

    <symbol id="next" viewBox="0 0 23 38">
        <path d="M2 2L20 19L2 36" stroke-width="3" stroke-linecap="round"/>
    </symbol>

    <symbol id="basket-icon" viewBox="0 0 22 19">
        <path d="M21.2143 0H0.785714C0.577361 0 0.377421 0.0827829 0.230102 0.230102C0.0827829 0.377421 0 0.577361 0 0.785714V5.5C0 5.70835 0.0827829 5.90829 0.230102 6.05561C0.377421 6.20293 0.577361 6.28571 0.785714 6.28571H1.57143V18.0714C1.57143 18.2798 1.65421 18.4797 1.80153 18.627C1.94885 18.7744 2.14879 18.8571 2.35714 18.8571H19.6429C19.8512 18.8571 20.0511 18.7744 20.1985 18.627C20.3458 18.4797 20.4286 18.2798 20.4286 18.0714V6.28571H21.2143C21.4226 6.28571 21.6226 6.20293 21.7699 6.05561C21.9172 5.90829 22 5.70835 22 5.5V0.785714C22 0.577361 21.9172 0.377421 21.7699 0.230102C21.6226 0.0827829 21.4226 0 21.2143 0ZM18.8571 17.2857H3.14286V6.28571H18.8571V17.2857ZM20.4286 4.71429H1.57143V1.57143H20.4286V4.71429Z"/>
        <path d="M8.64313 9.42861H13.3574C13.6382 9.42861 13.8976 9.27883 14.0379 9.03575C14.1782 8.79267 14.1782 8.49311 14.0379 8.25003C13.8976 8.00696 13.6382 7.85718 13.3574 7.85718H8.64313C8.36234 7.85718 8.10296 8.00695 7.96265 8.25003C7.82235 8.49312 7.82235 8.79267 7.96265 9.03575C8.10296 9.27883 8.36235 9.42861 8.64313 9.42861Z"/>
    </symbol>

</svg>