<svg width="62" height="64" viewBox="0 0 62 64" fill="none" xmlns="http://www.w3.org/2000/svg">
    <path d="M12.0215 50.1533C13.4648 48.6302 14.9924 47.1287 16.3009 45.487C16.9133 44.7176 17.2219 44.0024 16.9029 43.1029C16.8985 42.9528 16.8389 42.8081 16.7109 42.6914C16.5869 42.5289 16.4185 42.459 16.2467 42.46C13.8311 41.5956 11.7419 44.659 10.2606 46.1935C8.36586 48.1551 5.77444 50.3685 4.99814 53.0421C4.92676 53.2882 5.00355 53.5629 5.18324 53.7431C7.62104 56.1848 10.5668 51.6893 12.0215 50.1534L12.0215 50.1533ZM8.10735 52.1766C7.715 52.5315 6.53987 53.4816 6.49274 53.2774C6.31256 52.5059 7.85492 50.9971 8.36935 50.4064C9.00538 49.6769 9.64735 48.9527 10.3049 48.2428C11.0453 47.4434 14.1053 43.5712 15.5866 43.7577C15.5526 44.9702 11.8477 48.2413 11.252 48.8704C10.5712 49.5911 9.88642 50.3074 9.20262 51.0242C8.84079 51.4052 8.49521 51.8251 8.1073 52.1766L8.10735 52.1766Z" fill="black"/>
    <path d="M15.2108 49.1764C13.6907 50.7714 12.1739 52.3694 10.7006 54.0077C9.57964 55.2546 8.86188 55.899 9.08292 57.5782V57.5811C9.08735 57.6116 9.08588 57.6367 9.0908 57.6677C9.12821 57.9183 9.2631 58.0635 9.43145 58.1344C11.4966 59.948 15.0405 55.1758 16.1874 53.9628C17.3906 52.6897 21.9618 48.9141 20.7795 46.7105C19.3971 44.131 16.0349 48.3114 15.2108 49.1763L15.2108 49.1764ZM10.4736 56.987C10.6065 55.297 13.6753 52.8868 14.7057 51.7963C15.293 51.1751 18.5174 47.3151 19.0452 47.871C19.8678 48.7369 11.8761 56.6636 10.4736 56.987Z" fill="black"/>
    <path d="M56.4978 46.7883C50.5649 40.8164 44.1333 35.3483 37.7405 29.8369C41.4926 26.1182 45.2256 22.3804 48.9137 18.5982C49.7516 17.7391 50.5786 16.7442 51.4799 15.9537C52.7805 14.814 53.4446 15.0036 55.0303 14.6989C55.559 14.5975 55.9705 14.5994 56.4253 14.2972C58.1326 13.1654 59.3952 9.74306 60.2956 7.97382C61.1763 6.24491 61.0936 5.84378 59.7133 4.37384C58.3299 2.9005 57.6891 1.81053 55.8789 2.77196C53.7961 3.87712 50.4992 5.23433 48.9269 7.0139C48.4903 7.50815 48.538 7.64205 48.3145 8.21556C48.3101 8.63892 48.3052 9.06178 48.2988 9.48512C48.0172 10.637 47.4309 11.5714 46.5394 12.2866C45.828 13.1279 44.9478 13.8697 44.1695 14.6467C40.4616 18.3481 36.7716 22.0673 33.0745 25.7801C30.0864 23.1568 27.1386 20.4915 24.2834 17.7313C26.9914 13.766 27.4099 8.65223 24.4247 4.69422C21.31 0.563049 17.0508 -0.666182 12.1694 0.324235C11.5585 0.448289 11.2956 1.23101 11.5954 1.73506C12.5298 3.30393 13.4199 4.89938 14.3088 6.49446C14.6013 7.01824 14.8774 7.66116 15.2284 8.15003C15.4627 8.47691 15.5356 8.81067 15.5671 8.92636C15.2511 10.4854 14.3714 12.164 13.7274 13.6744C12.8098 13.6291 11.8926 13.5838 10.9746 13.5395C10.3956 13.5115 9.40369 13.2683 8.84692 13.4352C8.81591 13.4445 8.80015 13.446 8.77357 13.4534C7.32682 11.2022 6.01429 8.8471 4.65412 6.54478C4.32577 5.9895 3.60459 5.94075 3.14575 6.35082C-0.860406 9.93114 -0.938164 16.5213 2.33201 20.6431C6.10288 25.3956 11.6513 25.8992 17.0162 24.3446C19.8828 27.3086 22.7581 30.2642 25.6267 33.2263C25.3042 33.5468 24.9808 33.8672 24.6579 34.1877C23.5054 33.1091 22.3373 32.0473 21.1321 31.0239C20.7304 30.6832 20.1736 30.6409 19.7745 31.0239C18.9528 31.812 18.0037 32.743 17.4794 33.7762C16.7159 35.2802 17.4342 36.7969 16.8769 38.3692C16.6913 38.9392 13.0622 38.986 12.2269 39.3803C10.8234 40.0414 9.55092 41.3347 8.43486 42.3718C6.84583 43.8497 5.39114 45.4579 4.00577 47.1263C2.97839 48.3634 1.23225 49.9859 0.527273 51.4406C-0.511436 53.5845 1.81952 55.3842 3.16733 56.9024C4.95976 58.9217 7.51413 62.0487 9.93466 63.2144C12.5827 64.4889 14.4385 61.4319 16.0951 59.7661C18.5874 57.2593 21.295 54.7566 23.3921 51.8965C24.0256 51.0321 24.4194 50.345 24.5341 49.2521C24.7468 47.2279 23.8435 46.3772 26.5112 46.0036C28.8904 45.6703 30.2727 44.6936 31.9524 42.8722C32.3122 42.4818 32.3201 41.9053 31.9524 41.5145C30.9742 40.4748 29.9862 39.447 28.9888 38.4269C29.2768 38.1468 29.5653 37.8657 29.8533 37.5851C33.4622 41.3072 37.0647 45.0363 40.6809 48.7524C42.6314 50.7575 44.5827 52.763 46.5435 54.7587C48.5067 56.7568 50.435 59.2325 53.0681 60.312C56.799 61.8421 60.4331 59.7257 61.4605 55.9356C62.4815 52.1682 58.8889 49.1968 56.4963 46.7891L56.4978 46.7883ZM43.1557 17.6983C45.0859 15.7651 48.7348 13.3348 49.5947 10.7066C49.8158 10.0326 49.5106 8.57892 49.676 8.25656C50.0373 7.55062 51.8819 6.79847 52.5061 6.4238C53.5202 5.81485 54.5436 5.22214 55.5647 4.62507C56.9253 3.82955 56.9411 3.6287 58.0423 4.7314C58.9146 5.60421 59.4334 5.8794 59.1642 7.02792C58.9333 8.01297 58.027 9.14083 57.522 10.014C57.0454 10.8371 56.5305 12.1495 55.8069 12.7796C55.006 13.4782 53.9091 13.3325 52.9035 13.5382C50.0812 14.1176 48.1229 17.3519 46.1809 19.3309C43.0278 22.5435 39.8443 25.7261 36.646 28.8944C35.8145 28.1762 34.989 27.4521 34.1609 26.7298C37.1599 23.719 40.1534 20.7044 43.1558 17.6985L43.1557 17.6983ZM8.6518 13.4815C8.23778 13.5706 8.39778 13.3914 8.6518 13.4815V13.4815ZM29.9522 42.1971C29.6136 42.5476 29.2591 42.8858 28.8737 43.1625C27.319 44.276 26.3656 43.7665 24.6726 44.0397C23.0353 44.3046 22.5075 45.1936 22.4721 46.7836C22.4415 48.133 22.8172 49.1633 22.1171 50.4211C21.4171 51.6778 20.1348 52.8023 19.1581 53.8518C17.9697 55.1298 16.7474 56.3767 15.5207 57.6177C14.7365 58.4108 13.9464 59.1985 13.1573 59.9871C12.2643 60.8801 12.2785 61.1641 10.9588 60.9869C8.77253 60.694 6.25206 57.4489 4.77431 55.818C3.85819 54.8073 2.30552 53.4885 2.57584 52.0161C2.82493 50.6608 5.42762 48.3801 6.38312 47.2814C8.46503 44.8869 11.3861 41.1254 14.7002 40.8444C16.3591 40.7041 18.1151 40.7602 18.729 38.8768C19.1962 37.5589 18.7221 36.38 19.0396 35.1157C19.2365 34.3296 19.8578 33.6231 20.483 33.0048C23.8117 35.892 26.9239 38.9998 29.9525 42.1971L29.9522 42.1971ZM25.7044 35.1788C26.0135 34.8726 26.3227 34.5664 26.6309 34.2592C27.3703 35.0227 28.1116 35.7857 28.851 36.5493C28.5581 36.8343 28.2662 37.1194 27.9733 37.4039C27.226 36.6532 26.4684 35.9123 25.7044 35.1788L25.7044 35.1788ZM59.2694 54.9531C59.0218 57.5267 57.3997 59.4845 54.4875 58.788C52.3505 58.277 50.7393 56.267 49.2531 54.769C41.4347 46.8871 33.7535 38.8661 26.0295 30.8913C23.3471 28.1222 20.6647 25.3522 17.9842 22.5807C17.9763 22.5729 17.968 22.5679 17.9611 22.561C17.7548 22.3326 17.4407 22.211 17.0508 22.3336C12.6868 23.7124 8.58409 23.9094 4.89891 20.5791C1.58639 17.5856 0.868687 12.103 3.65738 8.61926C4.31655 9.72738 4.97722 10.8345 5.63935 11.9411C6.13113 12.7627 6.7135 14.4931 7.5302 15.0415C9.09768 16.0945 12.5061 15.5333 14.3581 15.6244C14.8071 15.646 15.1394 15.3054 15.2841 14.9194C15.9137 13.2364 17.6716 10.4609 17.5663 8.6547C17.5171 7.80797 16.6974 6.83328 16.3065 6.13083C15.5337 4.73966 14.7534 3.3529 13.956 1.97546C17.3093 1.59788 20.1355 2.57309 22.5284 5.36725C25.6214 8.98009 24.9456 13.7798 22.1932 17.371C21.9411 17.6998 22.0662 18.2644 22.3433 18.5347C30.5929 26.586 39.4018 34.0205 48.0269 41.66C51.49 44.7269 55.0552 47.7411 58.0398 51.2938C59.2085 52.685 59.464 52.9347 59.27 54.9534L59.2694 54.9531Z" fill="black"/>
    <path d="M56.0781 51.4232C54.7844 50.4746 53.1767 51.1431 52.2531 52.2823C52.1959 52.3354 52.1428 52.3989 52.1005 52.4811C52.0286 52.5825 51.9902 52.6835 51.9769 52.7809C51.4546 54.0923 51.7795 55.6815 53.053 56.443C54.4328 57.2681 56.2085 56.64 57.1399 55.4211C58.222 54.0053 57.3511 52.3567 56.0781 51.4232H56.0781ZM55.7754 54.7928C55.2865 55.2556 54.527 55.5761 53.8835 55.2605C53.1249 54.8883 52.9787 53.9112 53.3435 53.2077C53.8249 52.5289 54.7026 52.1444 55.3893 52.7085C56.0677 53.2663 56.5383 54.0711 55.7753 54.7928H55.7754Z" fill="black"/>
</svg>
