<svg width="62" height="42" viewBox="0 0 62 42" fill="none" xmlns="http://www.w3.org/2000/svg">
    <path d="M8.14027 6.23459e-05C7.53107 0.00104447 7.03788 0.492143 7.0364 1.09766V6.99959H1.10339C1.06735 6.99812 1.03131 6.99812 0.995767 6.99959C0.429019 7.05606 -0.00195755 7.53145 1.40086e-05 8.09768V40.8955C-0.00146706 41.1877 0.114549 41.4686 0.321405 41.6754C0.528747 41.8826 0.809657 41.9995 1.10339 42H53.8616C54.1563 42.0015 54.4397 41.8851 54.6481 41.6778C54.8564 41.4706 54.9729 41.1892 54.9719 40.8955V34.9999H60.8986C61.5058 34.9979 61.9975 34.5083 62 33.9042V1.0976C61.999 0.492571 61.5068 0.00246411 60.8986 0L8.14027 6.23459e-05ZM9.25056 2.20217H59.7883V32.7999H54.972V8.09844C54.9715 8.06112 54.9695 8.0238 54.9655 7.98697C54.9063 7.42515 54.4294 6.99888 53.8617 7.00035H9.25003L9.25056 2.20217ZM2.2136 9.20227H52.7589V14.6337H2.2136V9.20227ZM2.2136 16.8338H52.7589V20.5377H2.2136V16.8338ZM2.2136 22.7378H52.7589V39.7993H2.2136V22.7378ZM37.6335 28.5047C37.0677 28.5612 36.6372 29.0351 36.6377 29.6003V35.6334C36.6352 36.2408 37.1284 36.7354 37.7391 36.7378H45.9767C46.2714 36.7388 46.5548 36.6229 46.7631 36.4157C46.9715 36.2085 47.088 35.9266 47.087 35.6334V29.6003C47.0845 28.9928 46.5874 28.5022 45.9767 28.5047H37.7391C37.7041 28.5027 37.6685 28.5027 37.6335 28.5047H37.6335ZM38.8494 30.7048H44.8733V34.5377H38.8494V30.7048Z" fill="black"/>
</svg>
