<svg width="28" height="26" viewBox="0 0 28 26" fill="none" xmlns="http://www.w3.org/2000/svg">
    <path d="M27.4865 10.0252L27.487 10.0269C27.5024 10.0739 27.5044 10.1244 27.4926 10.1725C27.4809 10.2206 27.4559 10.2642 27.4209 10.2985L27.4206 10.2988L21.2952 16.3029L21.1081 16.4862L21.1524 16.7444L22.6001 25.1874L22.6003 25.1884C22.6087 25.2372 22.6034 25.2874 22.5849 25.3332C22.5664 25.379 22.5356 25.4184 22.4963 25.4471C22.4569 25.4759 22.4105 25.4928 22.3623 25.4963C22.3141 25.4998 22.2658 25.4896 22.2229 25.4669L22.2221 25.4664L14.652 21.4739L14.4186 21.3508L14.1852 21.474L6.61814 25.4696L6.61752 25.4699C6.5746 25.4927 6.52633 25.5028 6.47815 25.4993C6.42997 25.4959 6.38355 25.4789 6.34419 25.4502C6.30481 25.4214 6.27401 25.382 6.25554 25.3362L5.79186 25.5233L6.25554 25.3362C6.23706 25.2904 6.23171 25.2402 6.24019 25.1914L6.2404 25.1902L7.68508 16.7442L7.72923 16.4861L7.54224 16.3029L1.41678 10.2988L1.41054 10.2927L1.40408 10.2868C1.36714 10.253 1.34041 10.2091 1.32735 10.1602L0.84427 10.2892L1.32735 10.1602C1.31428 10.1112 1.31549 10.0595 1.33081 10.0113C1.34613 9.96302 1.37485 9.92046 1.41328 9.8885L1.09359 9.50405L1.41328 9.8885C1.4517 9.85655 1.49825 9.83649 1.54736 9.83047L1.54737 9.83058L1.55788 9.82906L10.0222 8.60811L10.283 8.57049L10.3994 8.33413L14.1857 0.645628C14.1858 0.645588 14.1858 0.645547 14.1858 0.645507C14.2076 0.601506 14.241 0.564725 14.2821 0.539113C14.3233 0.513488 14.3706 0.5 14.4187 0.5C14.4668 0.5 14.5141 0.513488 14.5553 0.539112C14.5963 0.564676 14.6297 0.60137 14.6515 0.645265C14.6515 0.645387 14.6516 0.645509 14.6517 0.645631L18.438 8.33413L18.5541 8.5699L18.8142 8.60796L27.2781 9.84671C27.2785 9.84678 27.2789 9.84684 27.2794 9.84691C27.3263 9.85436 27.3704 9.87465 27.4069 9.90578C27.4438 9.93722 27.4714 9.9785 27.4865 10.0252Z" stroke="#FFC700"/>
    <path d="M14.0178 0.114677C14.1382 0.0397185 14.277 0 14.4187 0V21.9162L6.8516 25.9117C6.72588 25.9784 6.58408 26.0083 6.44228 25.9981C6.30048 25.9879 6.16438 25.938 6.04941 25.8541C5.93444 25.7701 5.84521 25.6556 5.79186 25.5233C5.7385 25.3911 5.72315 25.2465 5.74756 25.1059L7.19224 16.6599L1.06678 10.6559C0.959168 10.5575 0.881941 10.4303 0.84427 10.2892C0.8066 10.1481 0.810068 9.9991 0.854263 9.85993C0.898458 9.72076 0.981523 9.59724 1.09359 9.50405C1.20566 9.41086 1.34203 9.3519 1.4865 9.33418L9.95083 8.11323L13.7374 0.424242C13.8003 0.296854 13.8974 0.189636 14.0178 0.114677Z" fill="#FFC700"/>
</svg>
