<svg width="23" height="22" viewBox="0 0 23 22" fill="none" xmlns="http://www.w3.org/2000/svg">
    <path d="M22.4921 8.50647L22.4927 8.50821C22.5012 8.53438 22.5023 8.56248 22.4958 8.58927L22.9815 8.70791L22.4958 8.58927C22.4892 8.61605 22.4754 8.64021 22.4561 8.65913L22.4558 8.65943L17.2727 13.7398L17.0856 13.9232L17.1299 14.1814L18.3549 21.3254L18.355 21.3264C18.3598 21.3536 18.3568 21.3815 18.3465 21.407C18.3362 21.4324 18.3192 21.4542 18.2975 21.4701C18.2758 21.4859 18.2503 21.4952 18.224 21.4971C18.1976 21.4989 18.1711 21.4934 18.1476 21.4809L18.1467 21.4805L11.7412 18.1022L11.5078 17.9791L11.2745 18.1023L4.87158 21.4832L4.87097 21.4835C4.84739 21.496 4.82093 21.5015 4.79457 21.4996C4.7682 21.4977 4.74272 21.4885 4.72105 21.4726C4.69936 21.4568 4.68229 21.435 4.67202 21.4096C4.66175 21.3841 4.65877 21.3562 4.66349 21.329L4.6637 21.3278L5.88612 14.1812L5.93027 13.9231L5.74328 13.7398L0.560199 8.65943L0.553958 8.65331L0.547506 8.64742C0.527116 8.62878 0.512273 8.60446 0.505002 8.57723C0.497728 8.54999 0.498402 8.5212 0.506928 8.49435C0.515449 8.46752 0.531384 8.44396 0.55258 8.42633C0.57376 8.40872 0.599329 8.39773 0.626207 8.39444L0.62622 8.39455L0.636733 8.39303L7.79885 7.35991L8.05962 7.3223L8.17603 7.08594L11.3798 0.58036C11.3799 0.580236 11.3799 0.580112 11.38 0.579988C11.3921 0.555697 11.4105 0.535501 11.4331 0.521471C11.4557 0.507377 11.4816 0.5 11.508 0.5C11.5343 0.5 11.5603 0.507378 11.5829 0.521469L11.8472 0.0970345L11.5829 0.521471C11.6054 0.535501 11.6239 0.555694 11.6359 0.579983C11.636 0.580108 11.6361 0.580234 11.6361 0.58036L14.8399 7.08594L14.956 7.32171L15.2161 7.35977L22.3773 8.40786C22.3777 8.40792 22.3781 8.40798 22.3784 8.40804C22.404 8.41217 22.4281 8.42326 22.4481 8.44033C22.4684 8.45767 22.4837 8.48053 22.4921 8.50647Z" stroke="#FFC700"/>
</svg>
