<svg width="29" height="26" viewBox="0 0 29 26" fill="none" xmlns="http://www.w3.org/2000/svg">
    <path d="M28.9595 9.8714C28.9131 9.73682 28.8278 9.61702 28.7132 9.52538C28.5986 9.43375 28.4592 9.37389 28.3105 9.3525L19.2768 8.11322L15.2369 0.424242C15.1698 0.296854 15.0662 0.189636 14.9378 0.114677C14.8093 0.0397185 14.6612 0 14.5101 0C14.3589 0 14.2108 0.0397185 14.0824 0.114677C13.9539 0.189636 13.8503 0.296854 13.7832 0.424242L9.74333 8.11322L0.712831 9.33418C0.558699 9.3519 0.413211 9.41085 0.293644 9.50405C0.174078 9.59724 0.0854561 9.72076 0.0383049 9.85993C-0.00884642 9.9991 -0.0125464 10.1481 0.0276443 10.2892C0.0678349 10.4303 0.150228 10.5575 0.265037 10.6559L6.80022 16.6599L5.25891 25.1059C5.23287 25.2465 5.24925 25.3911 5.30617 25.5233C5.36309 25.6556 5.45829 25.7701 5.58095 25.854C5.70361 25.938 5.84882 25.9879 6.0001 25.998C6.15138 26.0082 6.30267 25.9783 6.4368 25.9117L14.5101 21.9162L22.5866 25.9087C22.7207 25.9753 22.872 26.0052 23.0233 25.995C23.1745 25.9848 23.3198 25.9349 23.4424 25.851C23.5651 25.7671 23.6603 25.6525 23.7172 25.5203C23.7741 25.388 23.7905 25.2434 23.7645 25.1029L22.2199 16.6599L28.7551 10.6559C28.8638 10.5562 28.9405 10.4298 28.9767 10.2912C29.0128 10.1525 29.0069 10.0071 28.9595 9.8714Z" fill="#FFC700"/>
</svg>
