<svg width="22" height="14" viewBox="0 0 22 14" fill="none" xmlns="http://www.w3.org/2000/svg">
    <path d="M1 2.13133C1.08233 1.78075 1.20387 1.43823 1.53321 1.26092C1.74884 1.14406 1.99976 1.0272 2.23892 1.01914C3.07401 0.990933 3.91695 0.998993 4.75596 1.01108C5.31269 1.01914 5.68907 1.31734 5.92431 1.83314C6.20267 2.44565 6.46143 3.06622 6.78684 3.64649C7.08873 4.18244 7.46903 4.67003 7.82189 5.17374C7.85717 5.2221 7.93559 5.23822 7.9944 5.27046C8.02184 5.21001 8.07673 5.14957 8.07673 5.08912C8.08457 4.60153 8.08457 4.11394 8.07673 3.62635C8.07673 3.5659 8.02184 3.47725 7.96695 3.44904C7.4063 3.13472 7.14754 2.57057 7.2926 1.97418C7.43375 1.3939 7.92774 1.00705 8.55112 1.00705C9.62538 1.00302 10.6996 1.00302 11.7739 1.00705C12.5462 1.01108 13.0716 1.543 13.0755 2.34491C13.0834 3.29591 13.0755 4.24289 13.0794 5.19389C13.0794 5.5485 13.2951 5.7782 13.5774 5.69357C13.7107 5.65328 13.84 5.52433 13.9185 5.39941C14.6438 4.20259 15.3691 3.00577 16.0748 1.79687C16.3885 1.24077 16.8197 0.982874 17.447 1.00302C18.188 1.0272 18.929 1.01108 19.6739 1.00705C20.2032 1.00705 20.611 1.22465 20.854 1.70822C21.0971 2.19581 21.0266 2.66325 20.7168 3.10249C19.8935 4.27512 19.0741 5.44373 18.2508 6.61637C18.0234 6.94278 18.0234 7.05964 18.2508 7.38604C19.0741 8.55868 19.8974 9.72729 20.7168 10.8999C21.2069 11.6051 21.0148 12.5118 20.2895 12.8543C20.1013 12.943 19.8778 12.9873 19.67 12.9913C18.8977 13.0074 18.1214 12.9954 17.3451 12.9994C16.8628 12.9994 16.4825 12.806 16.1885 12.4111C15.4397 11.4198 14.6791 10.4325 13.9263 9.44118C13.9028 9.40894 13.8793 9.3767 13.8557 9.34447C13.7303 9.17925 13.5734 9.11074 13.3735 9.16313C13.1931 9.21149 13.0834 9.38073 13.0794 9.61043C13.0716 9.9731 13.0794 10.3317 13.0755 10.6944C13.0755 10.8556 13.0755 11.0168 13.0442 11.1739C12.8599 12.0564 12.2836 12.5722 11.4916 12.8382C10.6055 13.1364 9.7626 13.0074 8.97063 12.4916C6.09289 10.6098 3.87774 8.09123 2.22716 5.03673C1.8547 4.34766 1.51752 3.63843 1.16859 2.93727C1.09802 2.79623 1.05489 2.6431 1 2.494C1 2.37311 1 2.25222 1 2.13133ZM8.91966 2.7237C8.91966 3.04607 8.91966 3.3483 8.91966 3.64649C8.91574 4.18647 8.93142 4.73048 8.90006 5.27046C8.87654 5.68954 8.62562 5.97565 8.23747 6.09654C7.84541 6.22146 7.5004 6.1046 7.23379 5.78626C7.01816 5.52836 6.81821 5.25434 6.62218 4.98032C6.0184 4.12603 5.56753 3.18711 5.17547 2.21596C5.07353 1.97015 4.90886 1.85732 4.6501 1.85732C3.88166 1.86134 3.11322 1.85732 2.34477 1.86134C1.90566 1.86134 1.72924 2.1676 1.92527 2.5746C2.14482 3.03801 2.36438 3.4974 2.59569 3.95275C4.20707 7.15232 6.41046 9.80385 9.38622 11.7542C9.95471 12.1249 10.5546 12.2337 11.1936 12.0444C11.7778 11.867 12.3032 11.4359 12.2522 10.634C12.2326 10.2874 12.2444 9.93683 12.2522 9.59028C12.26 9.10671 12.4561 8.7239 12.8677 8.47405C13.448 8.12347 14.0988 8.27257 14.5458 8.85687C15.3142 9.86027 16.0826 10.8637 16.8432 11.8751C16.9844 12.0605 17.1451 12.1532 17.3725 12.1411C17.5921 12.129 17.8156 12.137 18.0351 12.137C18.5997 12.137 19.1682 12.1411 19.7327 12.133C20.0111 12.129 20.2071 11.9073 20.1523 11.6535C20.1287 11.5406 20.0621 11.4318 19.9954 11.3351C19.1956 10.1907 18.3919 9.04627 17.5882 7.90184C17.1255 7.24097 17.1255 6.75338 17.5921 6.08848C18.3997 4.94002 19.2074 3.79156 20.0111 2.63907C20.0856 2.53027 20.1483 2.38923 20.1483 2.26028C20.1483 2.00238 19.9562 1.86134 19.6426 1.86134C18.8937 1.85732 18.1449 1.8694 17.3961 1.85732C17.1255 1.85329 16.9491 1.96209 16.808 2.19984C16.0905 3.4168 15.3652 4.62571 14.632 5.83461C14.5262 6.00789 14.4007 6.18117 14.2439 6.30609C13.8518 6.6204 13.4049 6.66473 12.9579 6.44309C12.5031 6.21743 12.2561 5.82655 12.2483 5.30672C12.2365 4.33154 12.2444 3.35233 12.2444 2.37714C12.2444 2.03462 12.0875 1.86537 11.7582 1.86134C10.6918 1.85732 9.62145 1.85732 8.55504 1.86134C8.26884 1.86134 8.08457 2.04268 8.08065 2.28849C8.07673 2.5343 8.26492 2.70758 8.5472 2.7237C8.66482 2.72773 8.78244 2.7237 8.91966 2.7237Z" fill="white" stroke="white" stroke-width="0.5"/>
</svg>
